<svg width="24" height="24" viewBox="0 0 24 24" fill="none" xmlns="http://www.w3.org/2000/svg">
<path d="M24 21V10.4826C24 9.17737 23.3632 7.95421 22.2938 7.20569L13.1469 0.802847C12.4583 0.320799 11.5417 0.3208 10.8531 0.802848L1.70615 7.2057C0.636844 7.95421 0 9.17737 0 10.4826V21C0 22.6569 1.34314 24 3 24H7.52632C8.0786 24 8.52632 23.5523 8.52632 23V18.8C8.52632 17.6954 9.42175 16.8 10.5263 16.8H13.4737C14.5783 16.8 15.4737 17.6954 15.4737 18.8V23C15.4737 23.5523 15.9214 24 16.4737 24H21C22.6569 24 24 22.6569 24 21Z" fill="#C0C5C8"/>
</svg>
