<svg width="24" height="24" viewBox="0 0 24 24" fill="none" xmlns="http://www.w3.org/2000/svg">
<rect width="24" height="24" fill="#2447F9"/>
<rect x="2" y="2" width="8" height="8" rx="2" fill="url(#paint0_linear_2001_27)"/>
<rect x="2" y="14" width="8" height="8" rx="2" fill="url(#paint1_linear_2001_27)"/>
<path d="M14 4C14 2.89543 14.8954 2 16 2H20C21.1046 2 22 2.89543 22 4V8C22 9.10457 21.1046 10 20 10H16C14.8954 10 14 9.10457 14 8V4Z" fill="url(#paint2_linear_2001_27)"/>
<rect x="14" y="14" width="8" height="8" rx="2" fill="url(#paint3_linear_2001_27)"/>
<defs>
<linearGradient id="paint0_linear_2001_27" x1="6" y1="2" x2="6" y2="10" gradientUnits="userSpaceOnUse">
<stop stop-color="#77F8AC"/>
<stop offset="1" stop-color="#35C872"/>
</linearGradient>
<linearGradient id="paint1_linear_2001_27" x1="6" y1="14" x2="6" y2="22" gradientUnits="userSpaceOnUse">
<stop stop-color="#78DFA3"/>
<stop offset="1" stop-color="#35C872"/>
</linearGradient>
<linearGradient id="paint2_linear_2001_27" x1="18" y1="2" x2="18" y2="10" gradientUnits="userSpaceOnUse">
<stop stop-color="#6FEEA4"/>
<stop offset="1" stop-color="#35C872"/>
</linearGradient>
<linearGradient id="paint3_linear_2001_27" x1="18" y1="14" x2="18" y2="22" gradientUnits="userSpaceOnUse">
<stop stop-color="#74F4A9"/>
<stop offset="1" stop-color="#35C872"/>
</linearGradient>
</defs>
</svg>
