<svg width="22" height="24" viewBox="0 0 22 24" fill="none" xmlns="http://www.w3.org/2000/svg">
<path d="M11 23.804C9.4 23.804 8 22.304 8 20.304H14C14 22.304 13 23.804 11 23.804Z" fill="url(#paint0_linear_2001_44)"/>
<path d="M3.77373 14.92V6.84402C5.5 -0.695999 16 -1.196 18.4233 6.84402V14.92C22.3299 15.9968 21.3533 19.7656 18.4233 20.304H3.77373C-0.621124 19.7656 0.843814 14.92 3.77373 14.92Z" fill="#122341"/>
<path d="M3.77373 14.92V6.84402C5.5 -0.695999 16 -1.196 18.4233 6.84402V14.92M3.77373 14.92H18.4233M3.77373 14.92C0.843814 14.92 -0.621124 19.7656 3.77373 20.304H18.4233C21.3533 19.7656 22.3299 15.9968 18.4233 14.92" stroke="#00A2EA"/>
<defs>
<linearGradient id="paint0_linear_2001_44" x1="11" y1="20.304" x2="11" y2="23.804" gradientUnits="userSpaceOnUse">
<stop stop-color="#F4BB60"/>
<stop offset="1" stop-color="#F3A424"/>
</linearGradient>
</defs>
</svg>
