<svg width="24" height="26" viewBox="0 0 24 26" fill="none" xmlns="http://www.w3.org/2000/svg">
<path d="M12 25.8C10.24 25.8 8.70001 24.1687 8.70001 21.9936H15.3C15.3 24.1687 14.2 25.8 12 25.8Z" fill="url(#paint0_linear_2001_44)"/>
<path d="M4.0511 16.1384V7.35555C5.95 -0.84445 17.5 -1.38822 20.1657 7.35555V16.1384C24.4629 17.3095 23.3886 21.4081 20.1657 21.9937H4.0511C-0.783237 21.4081 0.828195 16.1384 4.0511 16.1384Z" fill="#2447F9"/>
<path d="M4.0511 16.1384V7.35555C5.95 -0.84445 17.5 -1.38822 20.1657 7.35555V16.1384M4.0511 16.1384H20.1657M4.0511 16.1384C0.828195 16.1384 -0.783236 21.4081 4.0511 21.9937H20.1657C23.3886 21.4081 24.4629 17.3095 20.1657 16.1384" stroke="#DFF5FE"/>
<defs>
<linearGradient id="paint0_linear_2001_44" x1="12" y1="21.9936" x2="12" y2="25.8" gradientUnits="userSpaceOnUse">
<stop stop-color="#35C872"/>
<stop offset="1" stop-color="#35C872"/>
</linearGradient>
</defs>
</svg>
