<svg width="22" height="25" viewBox="0 0 22 25" fill="none" xmlns="http://www.w3.org/2000/svg">
<path d="M11 23.804C9.4 23.804 8 22.304 8 20.304H14C14 22.304 13 23.804 11 23.804Z" fill="#C0C5C8" stroke="#00A2EA" stroke-width="0.8"/>
<path d="M3.77373 14.92V6.84402C5.5 -0.695999 16 -1.196 18.4233 6.84402V14.92C22.3299 15.9968 21.3533 19.7656 18.4233 20.304H3.77373C-0.621124 19.7656 0.843814 14.92 3.77373 14.92Z" fill="#C0C5C8"/>
<path d="M3.77373 14.92V6.84402C5.5 -0.695999 16 -1.196 18.4233 6.84402V14.92M3.77373 14.92H18.4233M3.77373 14.92C0.843814 14.92 -0.621124 19.7656 3.77373 20.304H18.4233C21.3533 19.7656 22.3299 15.9968 18.4233 14.92" stroke="#00A2EA"/>
</svg>
